<svg xmlns="http://www.w3.org/2000/svg" viewBox="245 175 765 850" role="img" aria-labelledby="title desc">
  <style>
    .flask {
      fill: #f8fafc;
    }

    .sun {
      fill: #f2c84b;
    }
  </style>

  <path class="sun" d="m 486.75,776.42125 c -1.25185,-1.2595 -0.8288,-18.32477 0.70457,-28.42125 4.25437,-28.01291 17.06452,-53.96108 36.86419,-74.6719 11.66701,-12.20391 23.2992,-20.91705 37.68124,-28.2253 28.98404,-14.72827 57.81401,-18.99547 91,-13.46916 43.48171,7.2408 83.03019,37.18776 102.1714,77.36636 8.34834,17.52369 12.42718,34.18211 13.52152,55.22332 0.538,10.34428 0.41474,11.79813 -1.04784,12.35938 -0.91167,0.34984 -7.84226,-0.51151 -15.40133,-1.91411 C 686.90229,762.54437 616.75444,759.88975 552.5,767.10967 c -14.54641,1.6345 -38.492,5.31455 -62,9.52841 -1.65,0.29577 -3.3375,0.1982 -3.75,-0.21683 z"/>

  <path class="flask" fill-rule="evenodd" d="M 355.5,994.87193 C 322.07628,990.69359 291.91525,965.65603 280.96713,933 c -2.74999,-8.20266 -4.95934,-21.56529 -4.96013,-30 -8.1e-4,-8.67272 2.4975,-22.50715 5.63542,-31.20621 1.40352,-3.89088 17.64686,-34.79872 36.0963,-68.68406 C 370.7701,705.70914 411.68336,630.36126 424.49613,606.5 c 6.49734,-12.1 28.73121,-53.275 49.4086,-91.5 L 511.5,445.5 v -84 -84 l -10,-0.5 c -12.11735,-0.60587 -19.19203,-3.57111 -25.43109,-10.65906 -6.56027,-7.45286 -8.31039,-13.62564 -7.89352,-27.84094 0.32473,-11.07322 0.57994,-12.41361 3.30456,-17.35541 3.76515,-6.82909 10.23339,-12.51949 17.18895,-15.1219 5.4161,-2.02642 6.62183,-2.04176 140.1471,-1.78335 L 763.5,204.5 l 4.69487,2.31252 c 6.23269,3.06999 12.13915,9.12692 15.40045,15.79279 4.59092,9.38349 4.43705,27.37714 -0.31433,36.75905 -2.45719,4.85188 -9.44934,11.68538 -14.74084,14.40637 -4.13931,2.12852 -6.91685,2.6934 -15.54015,3.16051 L 742.5,277.5 742.21988,358 c -0.19315,55.5061 0.0577,81.89717 0.80799,85 0.59846,2.475 9.24253,19.575 19.20904,38 9.96652,18.425 23.72609,43.85 30.57683,56.5 6.85074,12.65 22.22993,41.225 34.17598,63.5 25.29449,47.16495 71.43211,132.37988 128.04735,236.5 20.62721,37.93515 23.85152,48.04853 22.63599,71 -1.28829,24.32527 -11.27438,45.54611 -29.44819,62.57856 -14.22917,13.33554 -31.74975,21.56974 -50.72487,23.83933 -11.09235,1.32674 -531.37229,1.28262 -542,-0.046 z m 40.16429,-170.7247 C 445.37868,803.7263 500.19259,790.98312 567,784.31496 c 25.15014,-2.51028 97.43413,-2.51493 121,-0.008 40.33292,4.29097 78.24476,10.92483 107.5,18.81047 20.44271,5.51026 53.18234,16.53403 69.36636,23.35638 13.55099,5.7124 17.34917,6.41156 17.94161,3.30266 0.18062,-0.94782 -7.19484,-15.57282 -16.38991,-32.5 C 857.22299,780.34951 839.2494,747.15 826.47676,723.5 c -12.77265,-23.65 -31.54446,-58.3 -41.71514,-77 -21.13434,-38.85797 -74.32064,-137.13133 -85.51082,-158 -4.12888,-7.7 -8.42784,-15.0125 -9.55324,-16.25 l -2.04619,-2.25 -60.2149,0 c -55.91275,0 -60.35896,0.12503 -62.23118,1.75 -1.85857,1.61312 -10.91442,18.12056 -77.21437,140.75 -12.78644,23.65 -32.80487,60.55 -44.4854,82 -19.48627,35.78439 -54.85786,101.12024 -66.6349,123.08318 -6.18763,11.53927 -6.41221,15.15111 -0.87631,14.09332 1.37813,-0.26333 10.22962,-3.6515 19.66998,-7.52927 z"/>
</svg>
